<svg xmlns="http://www.w3.org/2000/svg" viewBox="0 0 247.78 275.59"><g id="Layer_2" data-name="Layer 2"><g id="Layer_1-2" data-name="Layer 1"><g><path d="M232.34,48.69l-.09-1.57L123.89,16,15.37,47.18V77.64c0,23.77,0,48.34.05,72.51v.76a113,113,0,0,0,2,21.56c5.17,26.25,18.17,47.82,38.63,64.1,20,15.89,42.34,23.88,66.65,23.88a119.91,119.91,0,0,0,20.84-1.87c25.89-4.56,47.66-17.47,64.7-38.38,16.06-19.7,24.21-43.41,24.21-70.47V51.64C232.45,50.67,232.39,49.71,232.34,48.69Z" fill="#494668"></path><path d="M0,35.51,123.89,0,247.78,35.55v4.23c0,37.25-.1,74.49,0,111.75a124.08,124.08,0,0,1-94.33,120.76c-11.72,2.86-23.56,3.57-35.58,3.22a113.76,113.76,0,0,1-54.31-15.37l.55.3C30.84,241.52,10,213.3,2.27,175.69A113.08,113.08,0,0,1,0,152.86v-.81Q.06,96.17,0,40.3ZM16.41,48v4.53c0,32.53-.05,65.07,0,97.6v.78a116.29,116.29,0,0,0,2.09,22l-.12-.73c5.08,25.83,17.76,47.15,38.26,63.5,25.51,20.28,54.62,27.44,86.66,21.79,26-4.59,47.4-17.55,64.08-38,16.52-20.27,24-43.78,24-69.8V52.06c0-1.33-.1-2.64-.17-4.12L123.87,17.14Z" fill="#fff"></path><g><path d="M137,151.6a22.51,22.51,0,0,0-.68-3.58,14.41,14.41,0,0,0-1.7-3.23,14.2,14.2,0,0,0-5.78-4.59c-.52-.17-1.37-1-2.56-1.71a1.84,1.84,0,0,1-.85-.68h1a3.74,3.74,0,0,1-1.36-.17c0-.17-.17-.17-.17-.34a6.38,6.38,0,0,1,1.7.17,7.48,7.48,0,0,0-1.7-.34,5.86,5.86,0,0,1,1.53.17,16,16,0,0,1,1.53.51c-1.19-.85-1.36-1-1-1.36.34,0,.68-.17,1.36-.17a5.13,5.13,0,0,1,2.05.51c-.34-.34-1.53-.68-1.36-.68-.17,0-.17,0-.34-.17l-.35-.17h-.68c-.17-.17-.68-.17-.85-.34h-1.19a8.19,8.19,0,0,0-2,0,11,11,0,0,0-4.76,2.21,15.78,15.78,0,0,0-7,8,16.51,16.51,0,0,0,0,9.53c.17.34.17.85.34,1.36h.51c0,.17,0,.51.17.51,0,.34.17.51.34.85.17.17.17.51.34.85a2.69,2.69,0,0,0,.34.52.59.59,0,0,0,.17.34c.17.17.17.17.34.17.17.17.17,0,.17,0a14.59,14.59,0,0,0,4.6,3.4c.51.34.68.85,1.36.85l.51.51c.34.17.51.34.68.34l.34-.34a1.53,1.53,0,0,1,.85.17c.34,0,.51.17.85.17.34.17.51.17.85.34a2.53,2.53,0,0,0,1-.17c.17-.17,0-.17,0-.51a26.83,26.83,0,0,0,3.58-.68,10.83,10.83,0,0,0,3.06-1.7c.51-.17.68-.51,1.19-.68a12.55,12.55,0,0,0,2.21-3.58,3,3,0,0,0,.85-1.19c.17-.17.34-.51.51-.51a1.85,1.85,0,0,0,.17-.85l-.17-.17a31718945414294.57,31718945414294.57,0,0,1,.34" fill="#fff"></path><path d="M131.69,136.79a.17.17,0,0,0-.17.17.53.53,0,0,0,.34.17c.17,0,0-.17-.17-.34" fill="#fff"></path><path d="M202.65,147.17a24.07,24.07,0,0,0-.17-3.23v-5.28c-.17-2.21-.51-2.55-.68-2.72,0-.17.17-.17.34-.17-.34-1.36-.51-3.57-.85-5.78-.17-1-.34-2.22-.51-3.24a26,26,0,0,0-.69-2.55c.17-.17.17-.17.52-.17-1.88-5.44-3.24-11.4-6.3-16.51a1.31,1.31,0,0,0,.51-.34c-1.19-2.55-2.72-5.27-2.55-5.27a1.31,1.31,0,0,1,.51-.34c-1.36-2.89-5.28-7.49-4.94-7.66,0,.17,0,.17-.34.34a82.07,82.07,0,0,0-11.06-11.74A72.58,72.58,0,0,0,165.55,74a68.6,68.6,0,0,0-17.36-8.34,73.31,73.31,0,0,0-20.42-3.4H122.5c-1.7.17-3.57.34-5.28.34a72.57,72.57,0,0,0-10.55,2A82.77,82.77,0,0,0,87.44,72.3a12.71,12.71,0,0,0-3.06,2.38c-.51.51-.51.85,1.19.17-1.53.85-2.55,1.7-3.91,2.56s-2.38,1.7-3.57,2.55c-1.2,1-2,1.53-2.39,1.87A8.5,8.5,0,0,0,74.85,83a14.11,14.11,0,0,1-3.06,3.23A86.18,86.18,0,0,0,53.24,116a83.08,83.08,0,0,0-3.74,16.85,51.66,51.66,0,0,0-.68,8.85v42.2c.17.17.51.34.85.68V182.4c.17,0,.85,0,.85-2.55.17-7.66.17-15.83.17-23.15V146.49c.17-1.36.17-2.72.34-4.08,0-.51.17-1.19.17-1.87l.17-.17v8.85c-.17,2.89-.17,6.12-.34,9-.17,5.79,0,11.41,1,14.64v-9.53c1.19,9.53,0,19.06.34,28.76.85,0,1.19,0,1.7,3.06,0-6.3-.51-15.83,0-22.29h1c.51,6.46-.34,16,0,22.29h1.71a4.15,4.15,0,0,1,.17,1.19h.17v-5.1c.34-.17.68-.34.68,1.7,0-.17.17-.34.17-.68a21.05,21.05,0,0,0-.34-3.41h1c.51,0,.51,3.24.51,6.3.51,0,1.19,2.21,1.7,1.19h.17v-3.91c.17.68.51,1.36.68,2.21.17,1.7.34,3.06.51,4.42a29.45,29.45,0,0,0,6-6.12V182.06c.17-.51.17-1.19.34-1.7.17-1.71.85-1.71.85-4.09,0-6.29.17-12.76,0-19.06-.17-3.4-.34-6.63-.51-10V138a32.76,32.76,0,0,1,.51-5.61,71.71,71.71,0,0,1,2-8.17,59.3,59.3,0,0,1,3.4-8.17,53.48,53.48,0,0,1,4.77-7.82,58,58,0,0,1,28.76-20.42,43.06,43.06,0,0,1,12.25-2.39,53.4,53.4,0,0,1,26.88,4.94,44.89,44.89,0,0,1,11.23,7.14,52.15,52.15,0,0,1,9,9.36c.34.85,1.19,2.22,1.88,3.75a5.29,5.29,0,0,1,.68,1,1.79,1.79,0,0,0,.34.85,15.16,15.16,0,0,0,.85,1.7,85.44,85.44,0,0,1,4.93,12.08,71.41,71.41,0,0,1,2,13.45c.17,2,.17,5.27.17,8,0,2.9,0,5.79.17,8.51,0,5.62.17,11.06.34,16a52.75,52.75,0,0,0,3.41,17.87c.17.68.51,1.36.68,2v4.25c.34.17.34.51.51.85a3.7,3.7,0,0,0,1.53,1.19V186c.17-4.76.34-10,1-11.06a2.35,2.35,0,0,0,.51.68v4.26c1.19,0,3.58,7.65,3.58,10.21a12,12,0,0,1,.34,2,51.88,51.88,0,0,0,.51,6.12c.17.51.34.85.51,1.36.17.86.17,1.54.34,2.22,2.38,1.87,3.91-1.36,5.44-4.6.17,0,.17-.17.34-.34.68-4.25,1.36-8.68,1.53-11.74.68-5.27,1.54,0,2.39,0-.17-5.27.68-7.83.34-12.93.17,0,.17-.85.34-2.38,0-1.54.17-3.75.17-6.13.17-4.77.17-10.55.17-14.29,0,0,0-.69-.17-2.22" fill="#fff"></path><path d="M166.06,173.89V147.34c0-1.36-.17-1.7-.34-1.7h.17c-.17-.85-.34-2.21-.51-3.4a7.62,7.62,0,0,1-.17-1.87,7.9,7.9,0,0,0-.51-1.53c.17-.18.17-.18.34-.18-1-3.23-1.7-6.46-3.4-9.52l.17-.17c-.68-1.71-1.53-3.07-1.36-3.24.17,0,.17,0,.34-.17-.68-1.53-2.9-4.25-2.56-4.42-.17.17-.17.17-.34.17a85.18,85.18,0,0,0-5.95-6.81,38.51,38.51,0,0,0-6-4.76,33.33,33.33,0,0,0-9.53-4.94,38.42,38.42,0,0,0-10.89-1.87H122.5a17.48,17.48,0,0,0-2.89.17c-1.71.34-3.75.68-5.62,1.19a40.32,40.32,0,0,0-10.38,4.43c-.68.34-1.36,1-1.7,1.19-.34.51-.34.68.51.34-.68.51-1.36.85-2,1.36a8.18,8.18,0,0,0-1.87,1.53,13.36,13.36,0,0,1-1.37,1,3.72,3.72,0,0,1-.51.85,14.06,14.06,0,0,1-1.53,1.87,50.19,50.19,0,0,0-10.21,17.19,46.21,46.21,0,0,0-2,9.87c-.17,1.7-.34,3.4-.34,5.11v37.43c.17.17.34.34.51.34v-1.19l1.7,7.83v2.89h2.21l2.22-2.55.51-.68a8.61,8.61,0,0,0,.34,2.21,36.14,36.14,0,0,0,3.06-3.57c0-2.22,0-4.09.17-6.3v-1c.17-1,.51-1,.51-2.38V171c-.17-1.88-.17-16.85-.34-18.72v-5.45a20.83,20.83,0,0,1,.34-3.23,23.82,23.82,0,0,1,1-4.76,23.47,23.47,0,0,1,2-4.77,23,23,0,0,1,2.56-4.42,35.45,35.45,0,0,1,6.8-7.49,29.18,29.18,0,0,1,8.85-4.43,21.15,21.15,0,0,1,6.47-1.53,29.18,29.18,0,0,1,14.8,2.9,48,48,0,0,1,6.13,4.08A28.59,28.59,0,0,1,147,128.8a4.62,4.62,0,0,1,1.19,2,1.29,1.29,0,0,1,.34.68c0,.17.17.34.17.51a5,5,0,0,0,.52,1c1,2.21,1.87,4.59,2.72,7a39.38,39.38,0,0,1,1,7.82v4.77c.17,1.53.17,15.31.17,16.84,0,3.41.17,6.47.17,9.53a31.28,31.28,0,0,0,2,10.21c0,.34.17.86.17,1l2.72,1,.68.68,1.2,2.72c0-.17-.17-.34-.17-.68a3.74,3.74,0,0,0-.17-1.36l3.06,2.21,1.36-2.21,1.19-6.64s.17.34.34.34v-2.55l.34-2.72-.17-.34V179c.17,0,.17-.68.17-1.53v-3.57" fill="#fff"></path></g></g></g></g></svg>