<svg version="1.1" xmlns="http://www.w3.org/2000/svg" xmlns:xlink="http://www.w3.org/1999/xlink" fill="white" x="0px" y="0px" class="h-10 w-10 inline-block align-bottom ml-4 lg:mt-2" viewBox="0 0 1024 1024" width="48" height="48">
  <g>
    <path d="M198.01,833.98
		c25.87,15.42,48.54,23.9,73.61,24.52c7.91,0.19,15.77-0.49,23.51-2.61c62.32-17.01,130.88,12.16,161.8,68.81
		c1.31,2.41,1.92,5.19,3.77,10.35c-14.07-2.44-26.3-4.24-38.38-6.74c-13.6-2.81-27.12-2.66-40.77-0.69
		c-58.02,8.4-108.48-5.54-148.46-50.14C221.73,864.82,207.42,854.54,198.01,833.98L198.01,833.98z" fill="white"></path><path d="M239.99,787.89
		c-9.31-6.78-18.68-13.53-28.42-19.66c-28.41-17.89-57.4-11.23-86.78-1c14.38,12.51,31.77,18.84,47.31,28.12
		c20.91,12.48,33.94,28.25,53.58,39.1c31.87,17.6,87.24-2.54,88.57-7.15C271.6,817.85,239.99,787.89,239.99,787.89L239.99,787.89z"></path><path d="M193.01,698.41
		c-19.35-12.86-38.84-22.78-59.5-31.35c-30.36-12.59-45.33-37.98-52.44-74.53c13.62,9.8,24.57,16.97,36.85,21.4
		c12.82,4.62,24.85,10.59,36.45,18.13C178.68,647.88,186.14,672.67,193.01,698.41L193.01,698.41z" fill="white"></path><path d="M95.31,678.68
		c26.94,15.65,55.4,14.18,80.15,25.84c24.69,11.63,40.39,30.75,52.29,60.28c-14.58-6.24-24.22-13.72-35.76-15.71
		c-12.01-2.08-24.48-2.62-36-6.2C125.61,733.45,108.84,710.27,95.31,678.68z" fill="white"></path><path d="M184.13,635.47
		c-1.29-27.98-3.77-55.23-26.53-75.95c-17.75-16.16-40.59-26.14-56.12-45.95c-2.72,31.66,0.49,63.42,30.27,79.11
		C161.52,608.38,184.13,635.47,184.13,635.47L184.13,635.47z" fill="white"></path><path d="M127.32,444.9
		c8.01,17.92,24,28.1,36.37,41.53c19.2,20.84,30.41,44.46,21.56,75.88c-8.27-14.26-15.54-20.52-24.79-27.35
		c-9.87-7.28-18.82-15.55-25.61-25.88C121.77,489.2,123.4,467.54,127.32,444.9L127.32,444.9z" fill="white"></path><path d="M171.04,401.53
		c6.54,16.11,12.45,26.46,20.89,35.49c20.8,22.27,27.1,48,15.54,79.78c-6.74-20.34-22.45-34.41-33.85-50.38
		C160.42,447.95,162.74,427.38,171.04,401.53L171.04,401.53z" fill="white"></path><path d="M88.6,208.29" fill="white"></path><path d="M126.87,229.83" fill="white"></path><path d="M838.28,833.98
		c-25.87,15.42-48.54,23.9-73.61,24.52c-7.91,0.19-15.77-0.49-23.51-2.61c-62.32-17.01-130.88,12.16-161.8,68.81
		c-1.31,2.41-1.92,5.19-3.77,10.35c14.07-2.44,26.3-4.24,38.38-6.74c13.6-2.81,27.12-2.66,40.77-0.69
		c58.02,8.4,108.48-5.54,148.46-50.14C814.56,864.82,828.87,854.54,838.28,833.98L838.28,833.98z" fill="white"></path><path d="M796.31,787.89
		c9.31-6.78,18.68-13.53,28.42-19.66c28.41-17.89,57.4-11.23,86.78-1c-14.38,12.51-31.77,18.84-47.31,28.12
		c-20.91,12.48-33.94,28.25-53.58,39.1c-31.87,17.6-87.24-2.54-88.57-7.15C764.69,817.85,796.31,787.89,796.31,787.89z" fill="white"></path><path d="M843.28,698.41
		c19.35-12.86,38.84-22.78,59.5-31.35c30.36-12.59,45.33-37.98,52.44-74.53c-13.62,9.8-24.57,16.97-36.85,21.4
		c-12.82,4.62-24.85,10.59-36.45,18.13C857.62,647.88,850.16,672.67,843.28,698.41L843.28,698.41z" fill="white"></path><path d="M940.99,678.68
		c-26.94,15.65-55.4,14.18-80.15,25.84c-24.69,11.63-40.39,30.75-52.29,60.28c14.58-6.24,24.22-13.72,35.76-15.71
		c12.01-2.08,24.48-2.62,36-6.2C910.69,733.45,927.46,710.27,940.99,678.68z" fill="white"></path><path d="M852.17,635.47
		c1.29-27.98,3.77-55.23,26.53-75.95c17.75-16.16,40.59-26.14,56.12-45.95c2.72,31.66-0.49,63.42-30.27,79.11
		C874.77,608.38,852.17,635.47,852.17,635.47L852.17,635.47z" fill="white"></path><path d="M908.97,444.9
		c-8.01,17.92-24,28.1-36.37,41.53c-19.2,20.84-30.41,44.46-21.56,75.88c8.27-14.26,15.54-20.52,24.79-27.35
		c9.87-7.28,18.82-15.55,25.61-25.88C914.53,489.2,912.9,467.54,908.97,444.9L908.97,444.9z" fill="white"></path><path d="M865.26,401.53
		c-6.54,16.11-12.45,26.46-20.89,35.49c-20.8,22.27-27.1,48-15.54,79.78c6.74-20.34,22.45-34.41,33.85-50.38
		C875.87,447.95,873.56,427.38,865.26,401.53L865.26,401.53z" fill="white"></path><path d="M947.69,208.29" fill="white"></path><path d="M909.42,229.83" fill="white"></path></g><g id="cg1"><clipPath id="SVGID_00000099654771308946423870000014961781711652305295_" ><rect x="516" y="73" width="437" height="900"></rect></clipPath><g style="clip-path:url(#SVGID_00000099654771308946423870000014961781711652305295_);" ><path d="M518.1,847.16l-2.96-1.48c-13.82-13.85-20.74-41.51-20.74-83.01v-91.91c7.92-3.94,15.81-6.42,23.71-7.41h0.81
			c7.89,1,15.79,3.47,23.7,7.41v91.91c0,41.51-6.92,69.16-20.74,83.01l-2.96,1.48L518.1,847.16L518.1,847.16z M415.87,541.79
			l2.96,1.48c1.99,0,3.7,2.73,5.19,8.15c1.48,5.44,2.22,13.11,2.22,22.98c0,31.64,1.48,48.92,4.44,51.88
			c1.99,1.99,4.7,2.73,8.15,2.22c3.47-0.49,5.69-3.2,6.67-8.15c1-4.93,4.7-10.61,11.11-17.05c6.44-6.42,12.59-11.12,18.52-14.08
			c19.77-6.9,34.08-10.38,42.97-10.38h0.81c8.89,0,23.2,3.47,42.97,10.38c5.93,2.96,12.08,7.67,18.52,14.08
			c6.41,6.44,10.12,12.11,11.11,17.05c0.97,4.96,3.19,7.67,6.67,8.15c3.45,0.51,6.16-0.23,8.15-2.22
			c2.96-2.96,4.44-20.24,4.44-51.88c0-9.87,0.74-17.53,2.22-22.98c1.48-5.42,3.19-8.15,5.19-8.15l2.96-1.48
			c2.96,0,4.44,5.44,4.44,16.31c0,2.96-0.25,12.86-0.74,29.65c-0.51,16.82-0.74,27.68-0.74,32.61c-1,27.68-5.44,44.98-13.33,51.88
			c-11.85,10.89-22.73,12.86-32.59,5.93c-25.7-16.79-45.44-25.69-59.26-26.68h-0.81c-13.82,1-33.57,9.89-59.26,26.68
			c-9.86,6.93-20.74,4.96-32.59-5.93c-7.89-6.9-12.34-24.2-13.33-51.88c0-4.93-0.23-15.8-0.74-32.61
			c-0.49-16.79-0.74-26.68-0.74-29.65C411.43,547.23,412.91,541.79,415.87,541.79L415.87,541.79z M362.54,484.72
			c2.96-7.41,4.44-12.6,4.44-15.57c1.99-5.93,2.96-17.05,2.96-33.35c0-16.31,0.51-26.43,1.48-30.39c1-4.93,4.21-8.89,9.63-11.86
			c5.44-2.96,8.15-4.93,8.15-5.93c0-0.97,0.74-2.96,2.22-5.93c1.48-2.96,3.96-6.67,7.41-11.12c3.47-4.45,7.66-9.38,12.59-14.82
			c4.95-5.42,11.11-10.86,18.52-16.31c7.41-5.42,15.32-10.38,23.7-14.82c8.4-4.45,18.29-7.9,29.63-10.38
			c11.37-2.46,22.96-3.71,34.82-3.71h0.81c28.86,0,40.83,5.01,34.82,3.71c11.34,2.48,21.23,5.93,29.63,10.38
			c8.38,4.45,16.3,9.4,23.7,14.82c7.41,5.44,13.57,10.89,18.52,16.31c4.93,5.44,9.12,10.38,12.59,14.82
			c3.45,4.45,5.93,8.15,7.41,11.12c1.48,2.96,2.22,4.96,2.22,5.93c0,1,2.71,2.96,8.15,5.93c5.42,2.96,8.63,6.93,9.63,11.86
			c0.97,3.96,1.48,14.08,1.48,30.39s0.97,27.42,2.96,33.35c0,2.96,1.48,8.15,4.44,15.57c2.96,7.41,4.93,13.85,5.93,19.27
			c0.97,5.44,0.97,11.12,0,17.05c-1,3.96-2.48,7.92-4.44,11.86c-1.99,3.96-4.44,7.18-7.41,9.64c-2.96,2.48-5.69,4.45-8.15,5.93
			c-2.48,1.48-4.7,2.73-6.67,3.71l-2.96,1.48l-2.96-1.48c-1-0.97-1.48-1.97-1.48-2.96c0-0.97,2.22-4.93,6.67-11.86
			c4.44-6.9,6.67-12.35,6.67-16.31c-1-6.9-3.96-12.09-8.89-15.57c-4.95-3.45-12.85-2.71-23.71,2.22
			c-16.81,9.89-25.7,22.75-26.67,38.54v14.82c0,0-0.25,11.12-0.74,15.57c-0.51,4.45-1.74,6.67-3.7,6.67c-3.96,1-6.18,1.25-6.67,0.74
			c-0.51-0.49-1.48-1.23-2.96-2.22c-1.48-0.97-2.73-2.96-3.7-5.93c-1-2.96-1.48-6.9-1.48-11.86c-3.96-24.69-24.7-37.06-62.23-37.06
			h-0.81c-37.53,0-58.27,12.37-62.23,37.06c0,4.96-0.49,8.89-1.48,11.86c-0.97,2.96-2.22,4.96-3.7,5.93c-1.48,1-2.45,1.74-2.96,2.22
			c-0.49,0.51-2.71,0.25-6.67-0.74c-1.97,0-3.19-2.22-3.7-6.67c-0.49-4.45-0.74-9.64-0.74-15.57s0-10.86,0-14.82
			c-0.97-15.8-9.86-28.65-26.67-38.54c-10.86-4.93-18.75-5.67-23.7-2.22c-4.93,3.47-7.89,8.66-8.89,15.57
			c0,3.96,2.22,9.4,6.67,16.31c4.44,6.93,6.67,10.89,6.67,11.86c0,1-0.49,1.99-1.48,2.96l-2.96,1.48l-2.96-1.48
			c-1.97-0.97-4.19-2.22-6.67-3.71c-2.45-1.48-5.19-3.45-8.15-5.93c-2.96-2.46-5.42-5.67-7.41-9.64c-1.97-3.94-3.45-7.9-4.44-11.86
			c-0.97-5.93-0.97-11.6,0-17.05C357.6,498.57,359.57,492.13,362.54,484.72L362.54,484.72z M552.99,406.89
			c0.97,15.82,5.93,26.2,14.82,31.13c2.96,1.99,12.59,4.22,28.89,6.67c16.3,2.48,27.41,3.71,33.34,3.71
			c7.89-0.97,11.85-6.9,11.85-17.79c2.96-14.82-3.47-27.17-19.26-37.06c-1.99-0.97-5.19-2.22-9.63-3.71
			c-4.44-1.48-9.14-2.96-14.07-4.45c-4.95-1.48-9.88-2.71-14.82-3.71c-4.95-0.97-9.63-1.71-14.07-2.22
			c-4.44-0.49-7.66-0.74-9.63-0.74c-3.96,0-6.18,1-6.67,2.96c-0.51,1.99-0.74,6.44-0.74,13.34
			C552.99,399.99,552.99,403.92,552.99,406.89z M495.14,478.79c3.47,5.44,9.63,5.19,18.52-0.74h9.7c8.89,5.93,15.05,6.18,18.52,0.74
			c3.45-5.42,5.19-13.09,5.19-22.98c0-8.89-2.96-19.76-8.89-32.61c-5.93-12.83-12.36-19.27-19.26-19.27h-0.81
			c-6.9,0-13.33,6.44-19.26,19.27c-5.93,12.86-8.89,23.72-8.89,32.61C489.95,465.7,491.69,473.37,495.14,478.79L495.14,478.79z
			 M395.13,430.61c0,10.89,3.96,16.82,11.85,17.79c5.93,0,17.04-1.23,33.34-3.71c16.3-2.46,25.93-4.68,28.89-6.67
			c8.89-4.93,13.84-15.31,14.82-31.13v-11.86c0-6.9-0.23-11.35-0.74-13.34c-0.49-1.97-2.71-2.96-6.67-2.96
			c-1.97,0-5.19,0.25-9.63,0.74c-4.44,0.51-9.12,1.25-14.07,2.22c-4.93,1-9.86,2.22-14.82,3.71c-4.93,1.48-9.63,2.96-14.07,4.45
			c-4.44,1.48-7.64,2.73-9.63,3.71C398.6,403.44,392.17,415.78,395.13,430.61L395.13,430.61z M505.24,929.9l290.63-503.4
			l-282.6-163.17c-5.7,0.35-11.99,1.28-18.87,2.81v-13.7l-29.63-17.11v2.57h-20.73v-14.54l-125.28-72.33l10.77-18.65l118.58,68.46
			h16.67v2.96c1.99,1.99,3.47,2.96,4.44,2.96h29.63c3.96-3.94,5.93-11.86,5.93-23.72c0-1.97,0.51-3.45,1.48-4.45v-64.45h-10.37
			V81.53h4.44c5.93,0,10.37-2.46,13.33-7.41v-1.48h26.71v1.48c2.96,4.96,7.41,7.41,13.33,7.41h4.44v32.61h-10.37v64.45
			c0.97,1,1.48,2.48,1.48,4.45c0,11.86,1.97,19.78,5.93,23.72h29.63c0.97,0,2.45-0.97,4.44-2.96v-2.96H610v37.06h-20.74v-2.96
			c-1.99-2.96-3.47-4.45-4.44-4.45h-20.74v2.96h-4.44v31.78l147.19,84.98v-43.66h-4.44v-2.96h-20.74c-0.97,0-2.45,1.48-4.44,4.45
			V311h-20.73v-37.06h20.74v2.96c1.99,1.99,3.47,2.96,4.44,2.96h29.63c3.96-3.94,5.93-11.86,5.93-23.72c0-1.97,0.51-3.45,1.48-4.45
			v-21.88h-88.22v-21.54h88.22v-38.04h-10.4v-32.61h4.44c5.93,0,10.37-2.46,13.33-7.41v-1.48h26.71v1.48
			c2.96,4.96,7.41,7.41,13.33,7.41h4.44v32.61H760.2v38.04h187.49L797.36,468.66v267.93L565.33,870.56l-47.17,81.71 M806.64,407.84
			l102.78-178.02H760.2v21.88c0.97,1,1.48,2.48,1.48,4.45c0,11.86,1.97,19.78,5.93,23.72h29.63c0.97,0,2.45-0.97,4.44-2.96v-2.96
			h20.74V311h-20.73v-2.96c-1.99-2.96-3.47-4.45-4.44-4.45H776.5v2.96h-4.44v81.32L806.64,407.84L806.64,407.84z" fill="white"></path></g></g><g id="cg2"><clipPath id="SVGID_00000014636392723995072960000012107917490754669972_"><rect x="81" y="73" width="437" height="900"></rect></clipPath><g style="clip-path:url(#SVGID_00000014636392723995072960000012107917490754669972_);"><path d="M518.2,847.16l2.96-1.48c13.82-13.85,20.74-41.51,20.74-83.01v-91.91c-7.92-3.94-15.81-6.42-23.71-7.41h-0.81
			c-7.89,1-15.79,3.47-23.7,7.41v91.91c0,41.51,6.92,69.16,20.74,83.01l2.96,1.48L518.2,847.16L518.2,847.16z M620.42,541.79
			l-2.96,1.48c-1.99,0-3.7,2.73-5.19,8.15c-1.48,5.44-2.22,13.11-2.22,22.98c0,31.64-1.48,48.92-4.44,51.88
			c-1.99,1.99-4.7,2.73-8.15,2.22c-3.47-0.49-5.69-3.2-6.67-8.15c-1-4.93-4.7-10.61-11.11-17.05c-6.44-6.42-12.59-11.12-18.52-14.08
			c-19.77-6.9-34.08-10.38-42.97-10.38h-0.81c-8.89,0-23.2,3.47-42.97,10.38c-5.93,2.96-12.08,7.67-18.52,14.08
			c-6.41,6.44-10.12,12.11-11.11,17.05c-0.97,4.96-3.19,7.67-6.67,8.15c-3.45,0.51-6.16-0.23-8.15-2.22
			c-2.96-2.96-4.44-20.24-4.44-51.88c0-9.87-0.74-17.53-2.22-22.98c-1.48-5.42-3.19-8.15-5.19-8.15l-2.96-1.48
			c-2.96,0-4.44,5.44-4.44,16.31c0,2.96,0.25,12.86,0.74,29.65c0.51,16.82,0.74,27.68,0.74,32.61c1,27.68,5.44,44.98,13.33,51.88
			c11.85,10.89,22.73,12.86,32.59,5.93c25.7-16.79,45.44-25.69,59.26-26.68h0.81c13.82,1,33.57,9.89,59.26,26.68
			c9.86,6.93,20.74,4.96,32.59-5.93c7.89-6.9,12.34-24.2,13.33-51.88c0-4.93,0.23-15.8,0.74-32.61c0.49-16.79,0.74-26.68,0.74-29.65
			C624.87,547.23,623.39,541.79,620.42,541.79L620.42,541.79z M673.76,484.72c-2.96-7.41-4.44-12.6-4.44-15.57
			c-1.99-5.93-2.96-17.05-2.96-33.35c0-16.31-0.51-26.43-1.48-30.39c-1-4.93-4.21-8.89-9.63-11.86c-5.44-2.96-8.15-4.93-8.15-5.93
			c0-0.97-0.74-2.96-2.22-5.93c-1.48-2.96-3.96-6.67-7.41-11.12c-3.47-4.45-7.66-9.38-12.59-14.82
			c-4.95-5.42-11.11-10.86-18.52-16.31c-7.41-5.42-15.32-10.38-23.7-14.82c-8.4-4.45-18.29-7.9-29.63-10.38
			c-11.37-2.46-22.96-3.71-34.82-3.71h-0.81c-28.86,0-40.83,5.01-34.82,3.71c-11.34,2.48-21.23,5.93-29.63,10.38
			c-8.38,4.45-16.3,9.4-23.7,14.82c-7.41,5.44-13.57,10.89-18.52,16.31c-4.93,5.44-9.12,10.38-12.59,14.82
			c-3.45,4.45-5.93,8.15-7.41,11.12c-1.48,2.96-2.22,4.96-2.22,5.93c0,1-2.71,2.96-8.15,5.93c-5.42,2.96-8.63,6.93-9.63,11.86
			c-0.97,3.96-1.48,14.08-1.48,30.39s-0.97,27.42-2.96,33.35c0,2.96-1.48,8.15-4.44,15.57c-2.96,7.41-4.93,13.85-5.93,19.27
			c-0.97,5.44-0.97,11.12,0,17.05c1,3.96,2.48,7.92,4.44,11.86c1.99,3.96,4.44,7.18,7.41,9.64c2.96,2.48,5.69,4.45,8.15,5.93
			c2.48,1.48,4.7,2.73,6.67,3.71l2.96,1.48l2.96-1.48c1-0.97,1.48-1.97,1.48-2.96c0-0.97-2.22-4.93-6.67-11.86
			c-4.44-6.9-6.67-12.35-6.67-16.31c1-6.9,3.96-12.09,8.89-15.57c4.95-3.45,12.85-2.71,23.71,2.22
			c16.81,9.89,25.7,22.75,26.67,38.54v14.82c0,0,0.25,11.12,0.74,15.57c0.51,4.45,1.74,6.67,3.7,6.67c3.96,1,6.18,1.25,6.67,0.74
			c0.51-0.49,1.48-1.23,2.96-2.22c1.48-0.97,2.73-2.96,3.7-5.93c1-2.96,1.48-6.9,1.48-11.86c3.96-24.69,24.7-37.06,62.23-37.06h0.81
			c37.53,0,58.27,12.37,62.23,37.06c0,4.96,0.49,8.89,1.48,11.86c0.97,2.96,2.22,4.96,3.7,5.93c1.48,1,2.45,1.74,2.96,2.22
			c0.49,0.51,2.71,0.25,6.67-0.74c1.97,0,3.19-2.22,3.7-6.67c0.49-4.45,0.74-9.64,0.74-15.57s0-10.86,0-14.82
			c0.97-15.8,9.86-28.65,26.67-38.54c10.86-4.93,18.75-5.67,23.7-2.22c4.93,3.47,7.89,8.66,8.89,15.57c0,3.96-2.22,9.4-6.67,16.31
			c-4.44,6.93-6.67,10.89-6.67,11.86c0,1,0.49,1.99,1.48,2.96l2.96,1.48l2.96-1.48c1.97-0.97,4.19-2.22,6.67-3.71
			c2.45-1.48,5.19-3.45,8.15-5.93c2.96-2.46,5.42-5.67,7.41-9.64c1.97-3.94,3.45-7.9,4.44-11.86c0.97-5.93,0.97-11.6,0-17.05
			C678.69,498.57,676.72,492.13,673.76,484.72L673.76,484.72z M483.3,406.89c-0.97,15.82-5.93,26.2-14.82,31.13
			c-2.96,1.99-12.59,4.22-28.89,6.67c-16.3,2.48-27.41,3.71-33.34,3.71c-7.89-0.97-11.85-6.9-11.85-17.79
			c-2.96-14.82,3.47-27.17,19.26-37.06c1.99-0.97,5.19-2.22,9.63-3.71c4.44-1.48,9.14-2.96,14.07-4.45
			c4.95-1.48,9.88-2.71,14.82-3.71c4.95-0.97,9.63-1.71,14.07-2.22c4.44-0.49,7.66-0.74,9.63-0.74c3.96,0,6.18,1,6.67,2.96
			c0.51,1.99,0.74,6.44,0.74,13.34C483.3,399.99,483.3,403.92,483.3,406.89L483.3,406.89z M541.16,478.79
			c-3.47,5.44-9.63,5.19-18.52-0.74h-9.7c-8.89,5.93-15.05,6.18-18.52,0.74c-3.45-5.42-5.19-13.09-5.19-22.98
			c0-8.89,2.96-19.76,8.89-32.61c5.93-12.83,12.36-19.27,19.26-19.27h0.81c6.9,0,13.33,6.44,19.26,19.27
			c5.93,12.86,8.89,23.72,8.89,32.61C546.35,465.7,544.61,473.37,541.16,478.79z M641.17,430.61c0,10.89-3.96,16.82-11.85,17.79
			c-5.93,0-17.04-1.23-33.34-3.71c-16.3-2.46-25.93-4.68-28.89-6.67c-8.89-4.93-13.84-15.31-14.82-31.13v-11.86
			c0-6.9,0.23-11.35,0.74-13.34c0.49-1.97,2.71-2.96,6.67-2.96c1.97,0,5.19,0.25,9.63,0.74c4.44,0.51,9.12,1.25,14.07,2.22
			c4.93,1,9.86,2.22,14.82,3.71c4.93,1.48,9.63,2.96,14.07,4.45c4.44,1.48,7.64,2.73,9.63,3.71
			C637.69,403.44,644.13,415.78,641.17,430.61z M523.03,263.33c5.7,0.35,11.99,1.28,18.87,2.81v-13.7l29.63-17.11v2.57h20.73v-14.54
			l125.28-72.33l-10.77-18.65L588.2,200.84h-16.67v2.96c-1.99,1.99-3.47,2.96-4.44,2.96h-29.63c-3.96-3.94-5.93-11.86-5.93-23.72
			c0-1.97-0.51-3.45-1.48-4.45v-64.45h10.37V81.53h-4.44c-5.93,0-10.37-2.46-13.33-7.41v-1.48h-26.71v1.48
			c-2.96,4.96-7.41,7.41-13.33,7.41h-4.44v32.61h10.37v64.45c-0.97,1-1.48,2.48-1.48,4.45c0,11.86-1.97,19.78-5.93,23.72H451.5
			c-0.97,0-2.45-0.97-4.44-2.96v-2.96h-20.74v37.06h20.73v-2.96c1.99-2.96,3.47-4.45,4.44-4.45h20.74v2.96h4.44v31.78l-147.19,84.98
			v-43.66h4.44v-2.96h20.74c0.97,0,2.45,1.48,4.44,4.45V311h20.73v-37.06h-20.74v2.96c-1.99,1.99-3.47,2.96-4.44,2.96h-29.63
			c-3.96-3.94-5.93-11.86-5.93-23.72c0-1.97-0.51-3.45-1.48-4.45v-21.88h88.22v-21.54h-88.22v-38.04h10.37v-32.61h-4.44
			c-5.93,0-10.37-2.46-13.33-7.41v-1.48H283.5v1.48c-2.96,4.96-7.41,7.41-13.33,7.41h-4.44v32.61h10.37v38.04H88.6l150.33,260.37
			v267.93l232.04,133.97l59.11,102.39l19.38-11.19L240.42,426.49L523.03,263.33L523.03,263.33z M229.65,407.84L126.87,229.83h149.22
			v21.88c-0.97,1-1.48,2.48-1.48,4.45c0,11.86-1.97,19.78-5.93,23.72h-29.63c-0.97,0-2.45-0.97-4.44-2.96v-2.96h-20.74V311h20.73
			v-2.96c1.99-2.96,3.47-4.45,4.44-4.45h20.74v2.96h4.44v81.32L229.65,407.84L229.65,407.84z" fill="white"></path></g></g></svg>